<mxfile host="app.diagrams.net" agent="Mozilla/5.0 (Windows NT 10.0; Win64; x64) AppleWebKit/537.36 (KHTML, like Gecko) Chrome/134.0.0.0 Safari/537.36" version="26.1.1">
  <diagram name="第 1 页" id="Rfu1U_4qTDlxDLTFrras">
    <mxGraphModel dx="882" dy="721" grid="1" gridSize="10" guides="1" tooltips="1" connect="1" arrows="1" fold="1" page="1" pageScale="1" pageWidth="1920" pageHeight="1200" math="0" shadow="0">
      <root>
        <mxCell id="0" />
        <mxCell id="1" parent="0" />
        <mxCell id="PEec-xE6orUt91D9rFY2-1" value="Request" style="rounded=1;whiteSpace=wrap;html=1;labelBackgroundColor=none;fillColor=#B2C9AB;strokeColor=#788AA3;fontColor=#46495D;" vertex="1" parent="1">
          <mxGeometry x="790" y="240" width="110" height="45" as="geometry" />
        </mxCell>
        <mxCell id="PEec-xE6orUt91D9rFY2-9" value="" style="rounded=0;whiteSpace=wrap;html=1;labelBackgroundColor=none;fillColor=#B2C9AB;strokeColor=#788AA3;fontColor=#46495D;" vertex="1" parent="1">
          <mxGeometry x="646.88" y="305" width="396.25" height="170" as="geometry" />
        </mxCell>
        <mxCell id="PEec-xE6orUt91D9rFY2-11" value="" style="endArrow=none;html=1;rounded=0;exitX=0.095;exitY=-0.004;exitDx=0;exitDy=0;exitPerimeter=0;entryX=0.094;entryY=0.995;entryDx=0;entryDy=0;entryPerimeter=0;labelBackgroundColor=none;strokeColor=#788AA3;fontColor=default;" edge="1" parent="1" source="PEec-xE6orUt91D9rFY2-9" target="PEec-xE6orUt91D9rFY2-9">
          <mxGeometry width="50" height="50" relative="1" as="geometry">
            <mxPoint x="800" y="315" as="sourcePoint" />
            <mxPoint x="850" y="265" as="targetPoint" />
          </mxGeometry>
        </mxCell>
        <mxCell id="PEec-xE6orUt91D9rFY2-12" value="UsernamePasswordAuthenticationFilter" style="rounded=0;whiteSpace=wrap;html=1;labelBackgroundColor=none;fillColor=#B2C9AB;strokeColor=#788AA3;fontColor=#46495D;" vertex="1" parent="1">
          <mxGeometry x="735.01" y="325" width="220" height="30" as="geometry" />
        </mxCell>
        <mxCell id="PEec-xE6orUt91D9rFY2-13" value="Filter" style="text;html=1;align=center;verticalAlign=middle;resizable=0;points=[];autosize=1;strokeColor=none;fillColor=none;labelBackgroundColor=none;fontColor=#46495D;" vertex="1" parent="1">
          <mxGeometry x="640" y="415" width="50" height="30" as="geometry" />
        </mxCell>
        <mxCell id="PEec-xE6orUt91D9rFY2-14" value="BasicAuthenticationFilter" style="rounded=0;whiteSpace=wrap;html=1;labelBackgroundColor=none;fillColor=#B2C9AB;strokeColor=#788AA3;fontColor=#46495D;" vertex="1" parent="1">
          <mxGeometry x="735" y="375" width="220" height="30" as="geometry" />
        </mxCell>
        <mxCell id="PEec-xE6orUt91D9rFY2-15" value="XxxFilters..." style="rounded=0;whiteSpace=wrap;html=1;labelBackgroundColor=none;fillColor=#B2C9AB;strokeColor=#788AA3;fontColor=#46495D;" vertex="1" parent="1">
          <mxGeometry x="735.01" y="425" width="220" height="30" as="geometry" />
        </mxCell>
        <mxCell id="PEec-xE6orUt91D9rFY2-16" value="" style="endArrow=classic;html=1;rounded=0;exitX=0.5;exitY=1;exitDx=0;exitDy=0;labelBackgroundColor=none;strokeColor=#788AA3;fontColor=default;" edge="1" parent="1" source="PEec-xE6orUt91D9rFY2-1" target="PEec-xE6orUt91D9rFY2-12">
          <mxGeometry width="50" height="50" relative="1" as="geometry">
            <mxPoint x="740" y="495" as="sourcePoint" />
            <mxPoint x="790" y="445" as="targetPoint" />
          </mxGeometry>
        </mxCell>
        <mxCell id="PEec-xE6orUt91D9rFY2-17" value="" style="endArrow=classic;html=1;rounded=0;exitX=0.5;exitY=1;exitDx=0;exitDy=0;entryX=0.5;entryY=0;entryDx=0;entryDy=0;labelBackgroundColor=none;strokeColor=#788AA3;fontColor=default;" edge="1" parent="1" source="PEec-xE6orUt91D9rFY2-12" target="PEec-xE6orUt91D9rFY2-14">
          <mxGeometry width="50" height="50" relative="1" as="geometry">
            <mxPoint x="740" y="495" as="sourcePoint" />
            <mxPoint x="790" y="445" as="targetPoint" />
          </mxGeometry>
        </mxCell>
        <mxCell id="PEec-xE6orUt91D9rFY2-18" value="" style="endArrow=classic;html=1;rounded=0;exitX=0.5;exitY=1;exitDx=0;exitDy=0;labelBackgroundColor=none;strokeColor=#788AA3;fontColor=default;" edge="1" parent="1" source="PEec-xE6orUt91D9rFY2-14" target="PEec-xE6orUt91D9rFY2-15">
          <mxGeometry width="50" height="50" relative="1" as="geometry">
            <mxPoint x="855" y="365" as="sourcePoint" />
            <mxPoint x="855" y="385" as="targetPoint" />
          </mxGeometry>
        </mxCell>
        <mxCell id="PEec-xE6orUt91D9rFY2-20" value="" style="endArrow=classic;html=1;rounded=0;exitX=0.5;exitY=1;exitDx=0;exitDy=0;labelBackgroundColor=none;strokeColor=#788AA3;fontColor=default;" edge="1" parent="1" source="PEec-xE6orUt91D9rFY2-15" target="PEec-xE6orUt91D9rFY2-21">
          <mxGeometry width="50" height="50" relative="1" as="geometry">
            <mxPoint x="740" y="635" as="sourcePoint" />
            <mxPoint x="845" y="505" as="targetPoint" />
          </mxGeometry>
        </mxCell>
        <mxCell id="PEec-xE6orUt91D9rFY2-22" style="edgeStyle=orthogonalEdgeStyle;rounded=0;orthogonalLoop=1;jettySize=auto;html=1;labelBackgroundColor=none;strokeColor=#788AA3;fontColor=default;" edge="1" parent="1" source="PEec-xE6orUt91D9rFY2-21">
          <mxGeometry relative="1" as="geometry">
            <mxPoint x="1000" y="560" as="targetPoint" />
          </mxGeometry>
        </mxCell>
        <mxCell id="PEec-xE6orUt91D9rFY2-23" style="edgeStyle=orthogonalEdgeStyle;rounded=0;orthogonalLoop=1;jettySize=auto;html=1;labelBackgroundColor=none;strokeColor=#788AA3;fontColor=default;" edge="1" parent="1" source="PEec-xE6orUt91D9rFY2-21">
          <mxGeometry relative="1" as="geometry">
            <mxPoint x="845" y="675" as="targetPoint" />
          </mxGeometry>
        </mxCell>
        <mxCell id="PEec-xE6orUt91D9rFY2-21" value="是否匹配&lt;div&gt;Secutrity认证请求&lt;/div&gt;" style="html=1;whiteSpace=wrap;aspect=fixed;shape=isoRectangle;labelBackgroundColor=none;fillColor=#B2C9AB;strokeColor=#788AA3;fontColor=#46495D;" vertex="1" parent="1">
          <mxGeometry x="770" y="515" width="150" height="90" as="geometry" />
        </mxCell>
        <mxCell id="PEec-xE6orUt91D9rFY2-24" value="是" style="text;html=1;align=center;verticalAlign=middle;resizable=0;points=[];autosize=1;strokeColor=none;fillColor=none;labelBackgroundColor=none;fontColor=#46495D;" vertex="1" parent="1">
          <mxGeometry x="940" y="533" width="40" height="30" as="geometry" />
        </mxCell>
        <mxCell id="PEec-xE6orUt91D9rFY2-25" value="否" style="text;html=1;align=center;verticalAlign=middle;resizable=0;points=[];autosize=1;strokeColor=none;fillColor=none;labelBackgroundColor=none;fontColor=#46495D;" vertex="1" parent="1">
          <mxGeometry x="840" y="613" width="40" height="30" as="geometry" />
        </mxCell>
        <mxCell id="PEec-xE6orUt91D9rFY2-34" style="edgeStyle=orthogonalEdgeStyle;rounded=0;orthogonalLoop=1;jettySize=auto;html=1;labelBackgroundColor=none;strokeColor=#788AA3;fontColor=default;" edge="1" parent="1" source="PEec-xE6orUt91D9rFY2-26" target="PEec-xE6orUt91D9rFY2-32">
          <mxGeometry relative="1" as="geometry" />
        </mxCell>
        <mxCell id="PEec-xE6orUt91D9rFY2-26" value="业务逻辑" style="whiteSpace=wrap;html=1;labelBackgroundColor=none;fillColor=#B2C9AB;strokeColor=#788AA3;fontColor=#46495D;" vertex="1" parent="1">
          <mxGeometry x="785" y="675" width="120" height="30" as="geometry" />
        </mxCell>
        <mxCell id="PEec-xE6orUt91D9rFY2-28" style="edgeStyle=orthogonalEdgeStyle;rounded=0;orthogonalLoop=1;jettySize=auto;html=1;exitX=0.5;exitY=1;exitDx=0;exitDy=0;entryX=1;entryY=0.75;entryDx=0;entryDy=0;labelBackgroundColor=none;strokeColor=#788AA3;fontColor=default;" edge="1" parent="1" source="PEec-xE6orUt91D9rFY2-27" target="PEec-xE6orUt91D9rFY2-26">
          <mxGeometry relative="1" as="geometry">
            <mxPoint x="980" y="697.5" as="targetPoint" />
            <mxPoint x="1055.0344827586207" y="595" as="sourcePoint" />
            <Array as="points">
              <mxPoint x="1055" y="647" />
              <mxPoint x="1056" y="647" />
              <mxPoint x="1056" y="697" />
            </Array>
          </mxGeometry>
        </mxCell>
        <mxCell id="PEec-xE6orUt91D9rFY2-27" value="Security处理模块" style="whiteSpace=wrap;html=1;labelBackgroundColor=none;fillColor=#B2C9AB;strokeColor=#788AA3;fontColor=#46495D;" vertex="1" parent="1">
          <mxGeometry x="1000" y="537.5" width="110" height="45" as="geometry" />
        </mxCell>
        <mxCell id="PEec-xE6orUt91D9rFY2-32" value="Response" style="rounded=1;whiteSpace=wrap;html=1;labelBackgroundColor=none;fillColor=#B2C9AB;strokeColor=#788AA3;fontColor=#46495D;" vertex="1" parent="1">
          <mxGeometry x="785" y="765" width="120" height="30" as="geometry" />
        </mxCell>
        <mxCell id="PEec-xE6orUt91D9rFY2-35" value="简单流程：&lt;div&gt;&lt;span style=&quot;white-space: pre;&quot;&gt;&#x9;&lt;/span&gt;&lt;span style=&quot;white-space: pre;&quot;&gt;&#x9;&lt;/span&gt;Filter ---》 构造Token ---》 AuthenticationManager ---》 转发给Provider处理----》 认证处理成功后续操作或者不通过抛出异常&lt;br&gt;&lt;/div&gt;" style="text;html=1;align=center;verticalAlign=middle;resizable=0;points=[];autosize=1;strokeColor=none;fillColor=none;fontColor=#46495D;" vertex="1" parent="1">
          <mxGeometry x="240" y="125" width="740" height="40" as="geometry" />
        </mxCell>
      </root>
    </mxGraphModel>
  </diagram>
</mxfile>
